<svg version="1.1" xmlns="http://www.w3.org/2000/svg" xmlns:xlink="http://www.w3.org/1999/xlink" width="1310" height="704"><defs><clipPath id="qafdUUFTItXJ"><path fill="none" stroke="none" d=" M 0 0 L 1310 0 L 1310 704 L 0 704 L 0 0 Z"/></clipPath></defs><g transform="scale(1,1)" clip-path="url(#qafdUUFTItXJ)"><g><rect fill="rgb(255,255,255)" stroke="none" x="0" y="0" width="1310" height="704" fill-opacity="1"/><path fill="none" stroke="rgb(0,0,0)" paint-order="fill stroke markers" d=" M 1054.5680759497689 448.4088537183168 C 1054.5680759497689 221.46380911069826 870.5927671035774 37.488500264507024 643.6477224959588 37.488500264507024 C 416.7026778883402 37.488500264507024 232.72736904214878 221.4638091106982 232.72736904214872 448.4088537183167" stroke-opacity="0.6980392156862745" stroke-linecap="round" stroke-linejoin="round" stroke-miterlimit="10" stroke-width="2.5"/><path fill="none" stroke="rgb(0,0,0)" paint-order="fill stroke markers" d=" M 643.6477224959588 448.4088537183168 C 643.6477224959588 561.881376022126 735.6353769190545 653.8690304452216 849.1078992228638 653.8690304452216 C 962.580421526673 653.8690304452216 1054.5680759497689 561.8813760221261 1054.5680759497689 448.40885371831683" stroke-opacity="0.6980392156862745" stroke-linecap="round" stroke-linejoin="round" stroke-miterlimit="10" stroke-width="2.5"/><path fill="none" stroke="rgb(0,0,0)" paint-order="fill stroke markers" d=" M 849.1078992228638 448.4088537183168 C 849.1078992228638 391.67259256641216 803.114072011316 345.67876535486437 746.3778108594113 345.67876535486437 C 689.6415497075067 345.67876535486437 643.6477224959588 391.67259256641216 643.6477224959588 448.4088537183168" stroke-opacity="0.6980392156862745" stroke-linecap="round" stroke-linejoin="round" stroke-miterlimit="10" stroke-width="2.5"/><path fill="none" stroke="rgb(0,0,0)" paint-order="fill stroke markers" d=" M 746.3778108594113 448.4088537183168 C 746.3778108594113 476.7769842942691 769.3747244651852 499.773897900043 797.7428550411375 499.773897900043 C 826.1109856170899 499.773897900043 849.1078992228638 476.7769842942691 849.1078992228638 448.4088537183168" stroke-opacity="0.6980392156862745" stroke-linecap="round" stroke-linejoin="round" stroke-miterlimit="10" stroke-width="2.5"/><path fill="none" stroke="rgb(0,0,0)" paint-order="fill stroke markers" d=" M 797.7428550411375 448.4088537183168 C 797.7428550411375 434.2247884303406 786.2443982382506 422.72633162745365 772.0603329502744 422.72633162745365 C 757.8762676622982 422.72633162745365 746.3778108594113 434.2247884303406 746.3778108594113 448.4088537183168" stroke-opacity="0.6980392156862745" stroke-linecap="round" stroke-linejoin="round" stroke-miterlimit="10" stroke-width="2.5"/><path fill="none" stroke="rgb(21,101,192)" paint-order="fill stroke markers" d=" M 947.0582550151564 448.4088537183168 C 947.0582550151564 308.9056378171406 833.9685540488714 195.8159368508556 694.4653381476951 195.8159368508556 C 554.9621222465189 195.8159368508556 441.87242128023377 308.9056378171406 441.87242128023377 448.4088537183167" stroke-opacity="0.6980392156862745" stroke-linejoin="round" stroke-miterlimit="10" stroke-width="5" stroke-dasharray="13,8"/><path fill="none" stroke="rgb(21,101,192)" paint-order="fill stroke markers" d=" M 692.0129797315062 448.4088537183168 C 692.0129797315062 518.837661746095 749.106809345553 575.9314913601419 819.5356173733313 575.9314913601419 C 889.9644254011096 575.9314913601419 947.0582550151564 518.8376617460951 947.0582550151564 448.40885371831683" stroke-opacity="0.6980392156862745" stroke-linejoin="round" stroke-miterlimit="10" stroke-width="5" stroke-dasharray="13,8"/><path fill="none" stroke="rgb(21,101,192)" paint-order="fill stroke markers" d=" M 821.7991516575294 448.4088537183168 C 821.7991516575294 412.56939197148677 792.7455274413478 383.5157677553052 756.9060656945178 383.5157677553052 C 721.0666039476878 383.5157677553052 692.0129797315062 412.56939197148677 692.0129797315062 448.4088537183168" stroke-opacity="0.6980392156862745" stroke-linejoin="round" stroke-miterlimit="10" stroke-width="5" stroke-dasharray="13,8"/><path fill="none" stroke="rgb(21,101,192)" paint-order="fill stroke markers" d=" M 771.8857476262847 448.4088537183168 C 771.8857476262847 462.1920596476164 783.0592437126073 473.3655557339392 796.842449641907 473.3655557339392 C 810.6256555712067 473.3655557339392 821.7991516575294 462.1920596476165 821.7991516575294 448.4088537183168" stroke-opacity="0.6980392156862745" stroke-linejoin="round" stroke-miterlimit="10" stroke-width="5" stroke-dasharray="13,8"/><path fill="none" stroke="rgb(0,0,0)" paint-order="fill stroke markers" d=" M -5 448.4088537183168 L 1315 448.4088537183168" stroke-opacity="0.6980392156862745" stroke-linejoin="round" stroke-miterlimit="10" stroke-width="2.5" stroke-dasharray="2.5,3"/><path fill="none" stroke="rgb(0,0,0)" paint-order="fill stroke markers" d=" M 643.6477224959588 709 L 643.6477224959588 -5" stroke-opacity="0.6980392156862745" stroke-linejoin="round" stroke-miterlimit="10" stroke-width="2.5" stroke-dasharray="2.5,3"/><path fill="none" stroke="rgb(0,0,0)" paint-order="fill stroke markers" d=" M 478.6403990221973 317.17327430828266 L 488.8778983858512 302.74308865573767" stroke-opacity="0.6980392156862745" stroke-linecap="round" stroke-linejoin="round" stroke-miterlimit="10" stroke-width="3"/><path fill="rgb(0,0,0)" stroke="none" paint-order="stroke fill markers" fill-rule="evenodd" d=" M 499.29312679074724 288.06238644930875 L 492.54807393745847 305.34689575696166 L 485.20772283424395 300.1392815545137 Z" fill-opacity="0.6980392156862745"/><path fill="none" stroke="rgb(0,0,0)" paint-order="fill stroke markers" d=" M 833.3699905286185 237.43805195052 L 856.5683252886383 256.0807312516885" stroke-opacity="0.6980392156862745" stroke-linecap="round" stroke-linejoin="round" stroke-miterlimit="10" stroke-width="3"/><path fill="rgb(0,0,0)" stroke="none" paint-order="stroke fill markers" fill-rule="evenodd" d=" M 870.599143449351 267.3561976163679 L 853.7494586974685 259.5884357918667 L 859.3871918798081 252.57302671151035 Z" fill-opacity="0.6980392156862745"/><path fill="none" stroke="rgb(0,0,0)" paint-order="fill stroke markers" d=" M 888.9509410217619 555.3833177455408 L 857.0048911182186 567.74655939512" stroke-opacity="0.6980392156862745" stroke-linecap="round" stroke-linejoin="round" stroke-miterlimit="10" stroke-width="3"/><path fill="rgb(0,0,0)" stroke="none" paint-order="stroke fill markers" fill-rule="evenodd" d=" M 840.2181397932289 574.2430953915539 L 855.3807571191101 563.5498715638727 L 858.629025117327 571.9432472263674 Z" fill-opacity="0.6980392156862745"/><path fill="none" stroke="rgb(0,0,0)" paint-order="fill stroke markers" d=" M 719.1603646831416 395.62273185884874 L 735.395312041746 389.77610801608284" stroke-opacity="0.6980392156862745" stroke-linecap="round" stroke-linejoin="round" stroke-miterlimit="10" stroke-width="3"/><path fill="rgb(0,0,0)" stroke="none" paint-order="stroke fill markers" fill-rule="evenodd" d=" M 752.3306062339805 383.67727119071446 L 736.9200212480881 394.0099315641415 L 733.8706028354039 385.5422844680242 Z" fill-opacity="0.6980392156862745"/><path fill="none" stroke="rgb(0,0,0)" paint-order="fill stroke markers" d=" M 813.3486653130426 467.12734243173935 L 807.9675482768337 468.3975310872699" stroke-opacity="0.6980392156862745" stroke-linecap="round" stroke-linejoin="round" stroke-miterlimit="10" stroke-width="3"/><path fill="rgb(0,0,0)" stroke="none" paint-order="stroke fill markers" fill-rule="evenodd" d=" M 790.4489785612502 472.53271126717027 L 806.9337532318585 464.01788865837403 L 809.0013433218088 472.77717351616576 Z" fill-opacity="0.6980392156862745"/><path fill="rgb(211,47,47)" stroke="none" paint-order="stroke fill markers" d=" M 237.72736904214872 448.4088537183168 C 237.72736904214872 451.1702774674707 235.4887927913027 453.4088537183168 232.72736904214872 453.4088537183168 C 229.96594529299475 453.4088537183168 227.72736904214872 451.1702774674707 227.72736904214872 448.4088537183168 C 227.72736904214872 445.64742996916283 229.96594529299475 443.4088537183168 232.72736904214872 443.4088537183168 C 235.4887927913027 443.4088537183168 237.72736904214872 445.64742996916283 237.72736904214872 448.4088537183168 Z" fill-opacity="1"/><path fill="none" stroke="rgb(0,0,0)" paint-order="fill stroke markers" d=" M 237.72736904214872 448.4088537183168 C 237.72736904214872 451.1702774674707 235.4887927913027 453.4088537183168 232.72736904214872 453.4088537183168 C 229.96594529299475 453.4088537183168 227.72736904214872 451.1702774674707 227.72736904214872 448.4088537183168 C 227.72736904214872 445.64742996916283 229.96594529299475 443.4088537183168 232.72736904214872 443.4088537183168 C 235.4887927913027 443.4088537183168 237.72736904214872 445.64742996916283 237.72736904214872 448.4088537183168 Z" stroke-opacity="1" stroke-linecap="round" stroke-linejoin="round" stroke-miterlimit="10"/><path fill="rgb(21,101,192)" stroke="none" paint-order="stroke fill markers" d=" M 1058.5680759497689 448.4088537183168 C 1058.5680759497689 450.61799271763994 1056.777214949092 452.4088537183168 1054.5680759497689 452.4088537183168 C 1052.3589369504457 452.4088537183168 1050.5680759497689 450.61799271763994 1050.5680759497689 448.4088537183168 C 1050.5680759497689 446.1997147189936 1052.3589369504457 444.4088537183168 1054.5680759497689 444.4088537183168 C 1056.777214949092 444.4088537183168 1058.5680759497689 446.1997147189936 1058.5680759497689 448.4088537183168 Z" fill-opacity="1"/><path fill="none" stroke="rgb(0,0,0)" paint-order="fill stroke markers" d=" M 1058.5680759497689 448.4088537183168 C 1058.5680759497689 450.61799271763994 1056.777214949092 452.4088537183168 1054.5680759497689 452.4088537183168 C 1052.3589369504457 452.4088537183168 1050.5680759497689 450.61799271763994 1050.5680759497689 448.4088537183168 C 1050.5680759497689 446.1997147189936 1052.3589369504457 444.4088537183168 1054.5680759497689 444.4088537183168 C 1056.777214949092 444.4088537183168 1058.5680759497689 446.1997147189936 1058.5680759497689 448.4088537183168 Z" stroke-opacity="1" stroke-linecap="round" stroke-linejoin="round" stroke-miterlimit="10"/><g transform="scale(27,27)"><g transform="translate(39.370370370370374,16.12592548148148)"><path fill="rgb(21,101,192)" stroke="none" paint-order="stroke fill markers" d=" M 0.46 -0.32 Q 0.46 -0.17400000000000002 0.423 -0.094 Q 0.364 0.018000000000000002 0.249 0.022 Q 0.158 0.022 0.10300000000000001 -0.05 Q 0.092 -0.063 0.084 -0.079 Q 0.039 -0.162 0.039 -0.32 Q 0.039 -0.467 0.076 -0.547 Q 0.126 -0.659 0.23800000000000002 -0.666 L 0.25 -0.666 Q 0.339 -0.666 0.395 -0.595 L 0.395 -0.594 Q 0.40900000000000003 -0.5760000000000001 0.42 -0.554 Q 0.46 -0.46900000000000003 0.46 -0.32 M 0.249 0 L 0.249 0 Q 0.312 0 0.34600000000000003 -0.061 Q 0.36 -0.088 0.366 -0.125 Q 0.377 -0.189 0.377 -0.332 Q 0.377 -0.47100000000000003 0.367 -0.527 Q 0.34900000000000003 -0.622 0.275 -0.641 Q 0.262 -0.644 0.249 -0.644 Q 0.179 -0.644 0.147 -0.5740000000000001 Q 0.136 -0.55 0.13 -0.516 Q 0.122 -0.462 0.122 -0.332 Q 0.122 -0.181 0.133 -0.121 Q 0.151 -0.025 0.221 -0.004 Q 0.23500000000000001 0 0.249 0 Z"/></g></g><path fill="rgb(21,101,192)" stroke="none" paint-order="stroke fill markers" d=" M 647.6477224959588 448.4088537183168 C 647.6477224959588 450.61799271763994 645.8568614952819 452.4088537183168 643.6477224959588 452.4088537183168 C 641.4385834966356 452.4088537183168 639.6477224959588 450.61799271763994 639.6477224959588 448.4088537183168 C 639.6477224959588 446.1997147189936 641.4385834966356 444.4088537183168 643.6477224959588 444.4088537183168 C 645.8568614952819 444.4088537183168 647.6477224959588 446.1997147189936 647.6477224959588 448.4088537183168 Z" fill-opacity="1"/><path fill="none" stroke="rgb(0,0,0)" paint-order="fill stroke markers" d=" M 647.6477224959588 448.4088537183168 C 647.6477224959588 450.61799271763994 645.8568614952819 452.4088537183168 643.6477224959588 452.4088537183168 C 641.4385834966356 452.4088537183168 639.6477224959588 450.61799271763994 639.6477224959588 448.4088537183168 C 639.6477224959588 446.1997147189936 641.4385834966356 444.4088537183168 643.6477224959588 444.4088537183168 C 645.8568614952819 444.4088537183168 647.6477224959588 446.1997147189936 647.6477224959588 448.4088537183168 Z" stroke-opacity="1" stroke-linecap="round" stroke-linejoin="round" stroke-miterlimit="10"/><g transform="scale(27,27)"><g transform="translate(23.11111111111111,16.348147703703702)"><path fill="rgb(21,101,192)" stroke="none" paint-order="stroke fill markers" d=" M 0.294 -0.64 L 0.294 -0.079 Q 0.294 -0.049 0.306 -0.041 Q 0.323 -0.031 0.387 -0.031 L 0.419 -0.031 L 0.419 0 Q 0.384 -0.003 0.257 -0.003 Q 0.13 -0.003 0.095 0 L 0.095 -0.031 L 0.127 -0.031 Q 0.20400000000000001 -0.031 0.215 -0.049 L 0.216 -0.05 Q 0.22 -0.058 0.22 -0.079 L 0.22 -0.597 Q 0.168 -0.5710000000000001 0.089 -0.5710000000000001 L 0.089 -0.602 Q 0.209 -0.602 0.271 -0.666 Q 0.29 -0.666 0.293 -0.659 L 0.293 -0.659 L 0.293 -0.658 Q 0.294 -0.655 0.294 -0.64 Z"/></g></g><path fill="rgb(21,101,192)" stroke="none" paint-order="stroke fill markers" d=" M 853.1078992228638 448.4088537183168 C 853.1078992228638 450.61799271763994 851.317038222187 452.4088537183168 849.1078992228638 452.4088537183168 C 846.8987602235406 452.4088537183168 845.1078992228638 450.61799271763994 845.1078992228638 448.4088537183168 C 845.1078992228638 446.1997147189936 846.8987602235406 444.4088537183168 849.1078992228638 444.4088537183168 C 851.317038222187 444.4088537183168 853.1078992228638 446.1997147189936 853.1078992228638 448.4088537183168 Z" fill-opacity="1"/><path fill="none" stroke="rgb(0,0,0)" paint-order="fill stroke markers" d=" M 853.1078992228638 448.4088537183168 C 853.1078992228638 450.61799271763994 851.317038222187 452.4088537183168 849.1078992228638 452.4088537183168 C 846.8987602235406 452.4088537183168 845.1078992228638 450.61799271763994 845.1078992228638 448.4088537183168 C 845.1078992228638 446.1997147189936 846.8987602235406 444.4088537183168 849.1078992228638 444.4088537183168 C 851.317038222187 444.4088537183168 853.1078992228638 446.1997147189936 853.1078992228638 448.4088537183168 Z" stroke-opacity="1" stroke-linecap="round" stroke-linejoin="round" stroke-miterlimit="10"/><g transform="scale(27,27)"><g transform="translate(31.85185185185185,16.38518474074074)"><path fill="rgb(21,101,192)" stroke="none" paint-order="stroke fill markers" d=" M 0.449 -0.17400000000000002 L 0.449 -0.17400000000000002 L 0.421 0 L 0.05 0 Q 0.05 -0.025 0.056 -0.032 L 0.061 -0.037 L 0.253 -0.251 Q 0.358 -0.369 0.358 -0.47200000000000003 Q 0.358 -0.561 0.304 -0.607 L 0.303 -0.608 L 0.302 -0.608 Q 0.27 -0.635 0.224 -0.635 Q 0.152 -0.635 0.109 -0.5730000000000001 Q 0.097 -0.555 0.089 -0.533 Q 0.092 -0.534 0.10200000000000001 -0.534 Q 0.14200000000000002 -0.534 0.153 -0.498 L 0.153 -0.497 Q 0.155 -0.49 0.155 -0.482 Q 0.155 -0.442 0.117 -0.431 Q 0.109 -0.429 0.10300000000000001 -0.429 Q 0.066 -0.429 0.054 -0.46 Q 0.05 -0.47100000000000003 0.05 -0.485 Q 0.05 -0.562 0.109 -0.617 Q 0.162 -0.666 0.23700000000000002 -0.666 Q 0.34700000000000003 -0.666 0.40800000000000003 -0.592 Q 0.443 -0.549 0.448 -0.49 Q 0.449 -0.481 0.449 -0.47200000000000003 Q 0.449 -0.399 0.394 -0.333 Q 0.365 -0.299 0.304 -0.243 L 0.243 -0.189 L 0.233 -0.18 L 0.127 -0.077 L 0.307 -0.077 Q 0.395 -0.077 0.402 -0.085 Q 0.41200000000000003 -0.099 0.424 -0.17400000000000002 L 0.449 -0.17400000000000002 Z"/></g></g><path fill="rgb(21,101,192)" stroke="none" paint-order="stroke fill markers" d=" M 750.3778108594113 448.4088537183168 C 750.3778108594113 450.61799271763994 748.5869498587344 452.4088537183168 746.3778108594113 452.4088537183168 C 744.1686718600881 452.4088537183168 742.3778108594113 450.61799271763994 742.3778108594113 448.4088537183168 C 742.3778108594113 446.1997147189936 744.1686718600881 444.4088537183168 746.3778108594113 444.4088537183168 C 748.5869498587344 444.4088537183168 750.3778108594113 446.1997147189936 750.3778108594113 448.4088537183168 Z" fill-opacity="1"/><path fill="none" stroke="rgb(0,0,0)" paint-order="fill stroke markers" d=" M 750.3778108594113 448.4088537183168 C 750.3778108594113 450.61799271763994 748.5869498587344 452.4088537183168 746.3778108594113 452.4088537183168 C 744.1686718600881 452.4088537183168 742.3778108594113 450.61799271763994 742.3778108594113 448.4088537183168 C 742.3778108594113 446.1997147189936 744.1686718600881 444.4088537183168 746.3778108594113 444.4088537183168 C 748.5869498587344 444.4088537183168 750.3778108594113 446.1997147189936 750.3778108594113 448.4088537183168 Z" stroke-opacity="1" stroke-linecap="round" stroke-linejoin="round" stroke-miterlimit="10"/><g transform="scale(27,27)"><g transform="translate(26.88888888888889,16.42222177777778)"><path fill="rgb(21,101,192)" stroke="none" paint-order="stroke fill markers" d=" M 0.29 -0.352 L 0.29 -0.352 Q 0.39 -0.332 0.434 -0.254 Q 0.457 -0.215 0.457 -0.171 Q 0.457 -0.08600000000000001 0.387 -0.028 Q 0.326 0.022 0.244 0.022 Q 0.145 0.022 0.085 -0.037 Q 0.042 -0.079 0.042 -0.135 Q 0.042 -0.182 0.084 -0.191 Q 0.091 -0.193 0.098 -0.193 Q 0.136 -0.193 0.149 -0.161 Q 0.153 -0.148 0.154 -0.137 Q 0.154 -0.097 0.11800000000000001 -0.085 Q 0.10400000000000001 -0.08 0.088 -0.082 Q 0.125 -0.02 0.216 -0.008 Q 0.229 -0.006 0.241 -0.006 Q 0.305 -0.006 0.335 -0.069 Q 0.354 -0.109 0.354 -0.171 Q 0.354 -0.304 0.274 -0.331 Q 0.256 -0.337 0.23500000000000001 -0.337 L 0.191 -0.337 Q 0.169 -0.337 0.167 -0.34800000000000003 Q 0.167 -0.358 0.182 -0.36 Q 0.197 -0.36 0.221 -0.363 Q 0.272 -0.365 0.301 -0.402 L 0.301 -0.403 L 0.302 -0.404 L 0.303 -0.405 L 0.304 -0.405 L 0.31 -0.41500000000000004 Q 0.338 -0.462 0.338 -0.529 Q 0.338 -0.622 0.266 -0.638 Q 0.254 -0.641 0.242 -0.641 Q 0.17200000000000001 -0.641 0.128 -0.601 Q 0.117 -0.591 0.109 -0.579 Q 0.171 -0.579 0.171 -0.529 Q 0.171 -0.493 0.14 -0.481 Q 0.131 -0.47800000000000004 0.12 -0.47800000000000004 Q 0.081 -0.47800000000000004 0.07100000000000001 -0.513 L 0.07100000000000001 -0.513 L 0.07100000000000001 -0.514 Q 0.069 -0.522 0.069 -0.53 Q 0.069 -0.597 0.135 -0.637 Q 0.183 -0.666 0.246 -0.666 Q 0.337 -0.666 0.393 -0.612 L 0.395 -0.61 Q 0.43 -0.5740000000000001 0.43 -0.528 Q 0.43 -0.445 0.359 -0.389 Q 0.328 -0.365 0.29 -0.352 Z"/></g></g><path fill="rgb(21,101,192)" stroke="none" paint-order="stroke fill markers" d=" M 801.7428550411375 448.4088537183168 C 801.7428550411375 450.61799271763994 799.9519940404607 452.4088537183168 797.7428550411375 452.4088537183168 C 795.5337160418144 452.4088537183168 793.7428550411375 450.61799271763994 793.7428550411375 448.4088537183168 C 793.7428550411375 446.1997147189936 795.5337160418144 444.4088537183168 797.7428550411375 444.4088537183168 C 799.9519940404607 444.4088537183168 801.7428550411375 446.1997147189936 801.7428550411375 448.4088537183168 Z" fill-opacity="1"/><path fill="none" stroke="rgb(0,0,0)" paint-order="fill stroke markers" d=" M 801.7428550411375 448.4088537183168 C 801.7428550411375 450.61799271763994 799.9519940404607 452.4088537183168 797.7428550411375 452.4088537183168 C 795.5337160418144 452.4088537183168 793.7428550411375 450.61799271763994 793.7428550411375 448.4088537183168 C 793.7428550411375 446.1997147189936 795.5337160418144 444.4088537183168 797.7428550411375 444.4088537183168 C 799.9519940404607 444.4088537183168 801.7428550411375 446.1997147189936 801.7428550411375 448.4088537183168 Z" stroke-opacity="1" stroke-linecap="round" stroke-linejoin="round" stroke-miterlimit="10"/><g transform="scale(27,27)"><g transform="translate(29.666666666666668,16.459258814814817)"><path fill="rgb(21,101,192)" stroke="none" paint-order="stroke fill markers" d=" M 0.028 -0.165 L 0.028 -0.196 L 0.335 -0.665 Q 0.343 -0.677 0.355 -0.677 Q 0.369 -0.677 0.371 -0.666 L 0.371 -0.651 L 0.371 -0.196 L 0.47100000000000003 -0.196 L 0.47100000000000003 -0.165 L 0.371 -0.165 L 0.371 -0.078 Q 0.371 -0.047 0.383 -0.04 Q 0.397 -0.031 0.447 -0.031 L 0.468 -0.031 L 0.468 0 Q 0.427 -0.003 0.332 -0.003 Q 0.23800000000000002 -0.003 0.197 0 L 0.197 -0.031 L 0.218 -0.031 Q 0.28 -0.031 0.29 -0.048 Q 0.294 -0.055 0.294 -0.078 L 0.294 -0.165 L 0.028 -0.165 M 0.3 -0.196 L 0.3 -0.5690000000000001 L 0.056 -0.196 L 0.3 -0.196 Z"/></g></g><path fill="rgb(0,0,0)" stroke="none" paint-order="stroke fill markers" d=" M 446.87242128023377 448.4088537183168 C 446.87242128023377 451.1702774674707 444.6338450293877 453.4088537183168 441.87242128023377 453.4088537183168 C 439.1109975310798 453.4088537183168 436.87242128023377 451.1702774674707 436.87242128023377 448.4088537183168 C 436.87242128023377 445.64742996916283 439.1109975310798 443.4088537183168 441.87242128023377 443.4088537183168 C 444.6338450293877 443.4088537183168 446.87242128023377 445.64742996916283 446.87242128023377 448.4088537183168 Z" fill-opacity="1"/><path fill="none" stroke="rgb(0,0,0)" paint-order="fill stroke markers" d=" M 446.87242128023377 448.4088537183168 C 446.87242128023377 451.1702774674707 444.6338450293877 453.4088537183168 441.87242128023377 453.4088537183168 C 439.1109975310798 453.4088537183168 436.87242128023377 451.1702774674707 436.87242128023377 448.4088537183168 C 436.87242128023377 445.64742996916283 439.1109975310798 443.4088537183168 441.87242128023377 443.4088537183168 C 444.6338450293877 443.4088537183168 446.87242128023377 445.64742996916283 446.87242128023377 448.4088537183168 Z" stroke-opacity="1" stroke-linecap="round" stroke-linejoin="round" stroke-miterlimit="10"/><path fill="rgb(0,0,0)" stroke="none" paint-order="stroke fill markers" d=" M 952.0582550151564 448.4088537183168 C 952.0582550151564 451.1702774674707 949.8196787643104 453.4088537183168 947.0582550151564 453.4088537183168 C 944.2968312660024 453.4088537183168 942.0582550151564 451.1702774674707 942.0582550151564 448.4088537183168 C 942.0582550151564 445.64742996916283 944.2968312660024 443.4088537183168 947.0582550151564 443.4088537183168 C 949.8196787643104 443.4088537183168 952.0582550151564 445.64742996916283 952.0582550151564 448.4088537183168 Z" fill-opacity="1"/><path fill="none" stroke="rgb(0,0,0)" paint-order="fill stroke markers" d=" M 952.0582550151564 448.4088537183168 C 952.0582550151564 451.1702774674707 949.8196787643104 453.4088537183168 947.0582550151564 453.4088537183168 C 944.2968312660024 453.4088537183168 942.0582550151564 451.1702774674707 942.0582550151564 448.4088537183168 C 942.0582550151564 445.64742996916283 944.2968312660024 443.4088537183168 947.0582550151564 443.4088537183168 C 949.8196787643104 443.4088537183168 952.0582550151564 445.64742996916283 952.0582550151564 448.4088537183168 Z" stroke-opacity="1" stroke-linecap="round" stroke-linejoin="round" stroke-miterlimit="10"/><path fill="rgb(0,0,0)" stroke="none" paint-order="stroke fill markers" d=" M 697.0129797315061 448.4088537183168 C 697.0129797315061 451.1702774674707 694.7744034806601 453.4088537183168 692.0129797315061 453.4088537183168 C 689.2515559823521 453.4088537183168 687.0129797315061 451.1702774674707 687.0129797315061 448.4088537183168 C 687.0129797315061 445.64742996916283 689.2515559823521 443.4088537183168 692.0129797315061 443.4088537183168 C 694.7744034806601 443.4088537183168 697.0129797315061 445.64742996916283 697.0129797315061 448.4088537183168 Z" fill-opacity="1"/><path fill="none" stroke="rgb(0,0,0)" paint-order="fill stroke markers" d=" M 697.0129797315061 448.4088537183168 C 697.0129797315061 451.1702774674707 694.7744034806601 453.4088537183168 692.0129797315061 453.4088537183168 C 689.2515559823521 453.4088537183168 687.0129797315061 451.1702774674707 687.0129797315061 448.4088537183168 C 687.0129797315061 445.64742996916283 689.2515559823521 443.4088537183168 692.0129797315061 443.4088537183168 C 694.7744034806601 443.4088537183168 697.0129797315061 445.64742996916283 697.0129797315061 448.4088537183168 Z" stroke-opacity="1" stroke-linecap="round" stroke-linejoin="round" stroke-miterlimit="10"/><path fill="rgb(0,0,0)" stroke="none" paint-order="stroke fill markers" d=" M 826.7991516575294 448.4088537183168 C 826.7991516575294 451.1702774674707 824.5605754066834 453.4088537183168 821.7991516575294 453.4088537183168 C 819.0377279083754 453.4088537183168 816.7991516575294 451.1702774674707 816.7991516575294 448.4088537183168 C 816.7991516575294 445.64742996916283 819.0377279083754 443.4088537183168 821.7991516575294 443.4088537183168 C 824.5605754066834 443.4088537183168 826.7991516575294 445.64742996916283 826.7991516575294 448.4088537183168 Z" fill-opacity="1"/><path fill="none" stroke="rgb(0,0,0)" paint-order="fill stroke markers" d=" M 826.7991516575294 448.4088537183168 C 826.7991516575294 451.1702774674707 824.5605754066834 453.4088537183168 821.7991516575294 453.4088537183168 C 819.0377279083754 453.4088537183168 816.7991516575294 451.1702774674707 816.7991516575294 448.4088537183168 C 816.7991516575294 445.64742996916283 819.0377279083754 443.4088537183168 821.7991516575294 443.4088537183168 C 824.5605754066834 443.4088537183168 826.7991516575294 445.64742996916283 826.7991516575294 448.4088537183168 Z" stroke-opacity="1" stroke-linecap="round" stroke-linejoin="round" stroke-miterlimit="10"/><path fill="rgb(0,0,0)" stroke="none" paint-order="stroke fill markers" d=" M 776.8857476262846 448.4088537183168 C 776.8857476262846 451.1702774674707 774.6471713754386 453.4088537183168 771.8857476262846 453.4088537183168 C 769.1243238771306 453.4088537183168 766.8857476262846 451.1702774674707 766.8857476262846 448.4088537183168 C 766.8857476262846 445.64742996916283 769.1243238771306 443.4088537183168 771.8857476262846 443.4088537183168 C 774.6471713754386 443.4088537183168 776.8857476262846 445.64742996916283 776.8857476262846 448.4088537183168 Z" fill-opacity="1"/><path fill="none" stroke="rgb(0,0,0)" paint-order="fill stroke markers" d=" M 776.8857476262846 448.4088537183168 C 776.8857476262846 451.1702774674707 774.6471713754386 453.4088537183168 771.8857476262846 453.4088537183168 C 769.1243238771306 453.4088537183168 766.8857476262846 451.1702774674707 766.8857476262846 448.4088537183168 C 766.8857476262846 445.64742996916283 769.1243238771306 443.4088537183168 771.8857476262846 443.4088537183168 C 774.6471713754386 443.4088537183168 776.8857476262846 445.64742996916283 776.8857476262846 448.4088537183168 Z" stroke-opacity="1" stroke-linecap="round" stroke-linejoin="round" stroke-miterlimit="10"/><g transform="scale(27,27)"><g transform="translate(6.666666666666667,18.15740740740741)"><path fill="rgb(0,0,0)" stroke="none" paint-order="stroke fill markers" d=" M 0.331 0.24 L 0.331 0.24 Q 0.331 0.25 0.321 0.25 Q 0.309 0.25 0.268 0.209 Q 0.20600000000000002 0.147 0.165 0.062 Q 0.099 -0.074 0.099 -0.25 Q 0.099 -0.419 0.162 -0.555 Q 0.214 -0.666 0.294 -0.733 Q 0.315 -0.75 0.321 -0.75 Q 0.331 -0.75 0.331 -0.74 Q 0.331 -0.735 0.318 -0.723 Q 0.157 -0.559 0.157 -0.25 Q 0.157 0.058 0.314 0.218 Q 0.331 0.23500000000000001 0.331 0.24 Z"/></g><g transform="translate(7.055556666666667,18.15740740740741)"><path fill="rgb(0,0,0)" stroke="none" paint-order="stroke fill markers" d=" M 0.661 -0.23 L 0.116 -0.23 Q 0.084 -0.23 0.083 -0.25 Q 0.083 -0.27 0.116 -0.27 L 0.661 -0.27 Q 0.6930000000000001 -0.27 0.6940000000000001 -0.25 Q 0.6940000000000001 -0.23 0.661 -0.23 Z"/></g><g transform="translate(7.833337666666667,18.15740740740741)"><path fill="rgb(0,0,0)" stroke="none" paint-order="stroke fill markers" d=" M 0.294 -0.64 L 0.294 -0.079 Q 0.294 -0.049 0.306 -0.041 Q 0.323 -0.031 0.387 -0.031 L 0.419 -0.031 L 0.419 0 Q 0.384 -0.003 0.257 -0.003 Q 0.13 -0.003 0.095 0 L 0.095 -0.031 L 0.127 -0.031 Q 0.20400000000000001 -0.031 0.215 -0.049 L 0.216 -0.05 Q 0.22 -0.058 0.22 -0.079 L 0.22 -0.597 Q 0.168 -0.5710000000000001 0.089 -0.5710000000000001 L 0.089 -0.602 Q 0.209 -0.602 0.271 -0.666 Q 0.29 -0.666 0.293 -0.659 L 0.293 -0.659 L 0.293 -0.658 Q 0.294 -0.655 0.294 -0.64 Z"/></g><g transform="translate(8.333339666666667,18.15740740740741)"><path fill="rgb(0,0,0)" stroke="none" paint-order="stroke fill markers" d=" M 0.203 -0.001 L 0.203 -0.001 Q 0.203 0.096 0.14 0.169 Q 0.123 0.189 0.112 0.193 Q 0.10200000000000001 0.193 0.10200000000000001 0.182 Q 0.10200000000000001 0.177 0.113 0.166 Q 0.17300000000000001 0.106 0.18 0.019 Q 0.181 0.009000000000000001 0.181 -0.001 Q 0.181 -0.016 0.179 -0.016 Q 0.178 -0.016 0.17400000000000002 -0.013000000000000001 Q 0.16 0 0.139 0 Q 0.10200000000000001 0 0.09 -0.034 Q 0.08600000000000001 -0.043000000000000003 0.08600000000000001 -0.053 Q 0.08600000000000001 -0.089 0.117 -0.10200000000000001 Q 0.127 -0.106 0.139 -0.106 Q 0.183 -0.106 0.198 -0.048 Q 0.203 -0.027 0.203 -0.001 Z"/></g><g transform="translate(8.777785833333335,18.15740740740741)"><path fill="rgb(0,0,0)" stroke="none" paint-order="stroke fill markers" d=" M 0.46 -0.32 Q 0.46 -0.17400000000000002 0.423 -0.094 Q 0.364 0.018000000000000002 0.249 0.022 Q 0.158 0.022 0.10300000000000001 -0.05 Q 0.092 -0.063 0.084 -0.079 Q 0.039 -0.162 0.039 -0.32 Q 0.039 -0.467 0.076 -0.547 Q 0.126 -0.659 0.23800000000000002 -0.666 L 0.25 -0.666 Q 0.339 -0.666 0.395 -0.595 L 0.395 -0.594 Q 0.40900000000000003 -0.5760000000000001 0.42 -0.554 Q 0.46 -0.46900000000000003 0.46 -0.32 M 0.249 0 L 0.249 0 Q 0.312 0 0.34600000000000003 -0.061 Q 0.36 -0.088 0.366 -0.125 Q 0.377 -0.189 0.377 -0.332 Q 0.377 -0.47100000000000003 0.367 -0.527 Q 0.34900000000000003 -0.622 0.275 -0.641 Q 0.262 -0.644 0.249 -0.644 Q 0.179 -0.644 0.147 -0.5740000000000001 Q 0.136 -0.55 0.13 -0.516 Q 0.122 -0.462 0.122 -0.332 Q 0.122 -0.181 0.133 -0.121 Q 0.151 -0.025 0.221 -0.004 Q 0.23500000000000001 0 0.249 0 Z"/></g><g transform="translate(9.277787833333335,18.15740740740741)"><path fill="rgb(0,0,0)" stroke="none" paint-order="stroke fill markers" d=" M 0.289 -0.25 L 0.289 -0.25 Q 0.289 -0.081 0.226 0.055 Q 0.17400000000000002 0.166 0.094 0.233 Q 0.073 0.25 0.067 0.25 Q 0.057 0.25 0.057 0.24 Q 0.057 0.23500000000000001 0.07 0.223 Q 0.231 0.059000000000000004 0.231 -0.25 Q 0.231 -0.555 0.081 -0.712 L 0.076 -0.717 Q 0.057 -0.735 0.057 -0.74 Q 0.057 -0.75 0.067 -0.75 Q 0.079 -0.75 0.12 -0.709 Q 0.182 -0.647 0.223 -0.562 Q 0.289 -0.426 0.289 -0.25 Z"/></g></g><g transform="scale(27,27)"><g transform="translate(21,18.00925925925926)"><path fill="rgb(0,0,0)" stroke="none" paint-order="stroke fill markers" d=" M 0.331 0.24 L 0.331 0.24 Q 0.331 0.25 0.321 0.25 Q 0.309 0.25 0.268 0.209 Q 0.20600000000000002 0.147 0.165 0.062 Q 0.099 -0.074 0.099 -0.25 Q 0.099 -0.419 0.162 -0.555 Q 0.214 -0.666 0.294 -0.733 Q 0.315 -0.75 0.321 -0.75 Q 0.331 -0.75 0.331 -0.74 Q 0.331 -0.735 0.318 -0.723 Q 0.157 -0.559 0.157 -0.25 Q 0.157 0.058 0.314 0.218 Q 0.331 0.23500000000000001 0.331 0.24 Z"/></g><g transform="translate(21.38889,18.00925925925926)"><path fill="rgb(0,0,0)" stroke="none" paint-order="stroke fill markers" d=" M 0.46 -0.32 Q 0.46 -0.17400000000000002 0.423 -0.094 Q 0.364 0.018000000000000002 0.249 0.022 Q 0.158 0.022 0.10300000000000001 -0.05 Q 0.092 -0.063 0.084 -0.079 Q 0.039 -0.162 0.039 -0.32 Q 0.039 -0.467 0.076 -0.547 Q 0.126 -0.659 0.23800000000000002 -0.666 L 0.25 -0.666 Q 0.339 -0.666 0.395 -0.595 L 0.395 -0.594 Q 0.40900000000000003 -0.5760000000000001 0.42 -0.554 Q 0.46 -0.46900000000000003 0.46 -0.32 M 0.249 0 L 0.249 0 Q 0.312 0 0.34600000000000003 -0.061 Q 0.36 -0.088 0.366 -0.125 Q 0.377 -0.189 0.377 -0.332 Q 0.377 -0.47100000000000003 0.367 -0.527 Q 0.34900000000000003 -0.622 0.275 -0.641 Q 0.262 -0.644 0.249 -0.644 Q 0.179 -0.644 0.147 -0.5740000000000001 Q 0.136 -0.55 0.13 -0.516 Q 0.122 -0.462 0.122 -0.332 Q 0.122 -0.181 0.133 -0.121 Q 0.151 -0.025 0.221 -0.004 Q 0.23500000000000001 0 0.249 0 Z"/></g><g transform="translate(21.888892,18.00925925925926)"><path fill="rgb(0,0,0)" stroke="none" paint-order="stroke fill markers" d=" M 0.203 -0.001 L 0.203 -0.001 Q 0.203 0.096 0.14 0.169 Q 0.123 0.189 0.112 0.193 Q 0.10200000000000001 0.193 0.10200000000000001 0.182 Q 0.10200000000000001 0.177 0.113 0.166 Q 0.17300000000000001 0.106 0.18 0.019 Q 0.181 0.009000000000000001 0.181 -0.001 Q 0.181 -0.016 0.179 -0.016 Q 0.178 -0.016 0.17400000000000002 -0.013000000000000001 Q 0.16 0 0.139 0 Q 0.10200000000000001 0 0.09 -0.034 Q 0.08600000000000001 -0.043000000000000003 0.08600000000000001 -0.053 Q 0.08600000000000001 -0.089 0.117 -0.10200000000000001 Q 0.127 -0.106 0.139 -0.106 Q 0.183 -0.106 0.198 -0.048 Q 0.203 -0.027 0.203 -0.001 Z"/></g><g transform="translate(22.333338166666664,18.00925925925926)"><path fill="rgb(0,0,0)" stroke="none" paint-order="stroke fill markers" d=" M 0.46 -0.32 Q 0.46 -0.17400000000000002 0.423 -0.094 Q 0.364 0.018000000000000002 0.249 0.022 Q 0.158 0.022 0.10300000000000001 -0.05 Q 0.092 -0.063 0.084 -0.079 Q 0.039 -0.162 0.039 -0.32 Q 0.039 -0.467 0.076 -0.547 Q 0.126 -0.659 0.23800000000000002 -0.666 L 0.25 -0.666 Q 0.339 -0.666 0.395 -0.595 L 0.395 -0.594 Q 0.40900000000000003 -0.5760000000000001 0.42 -0.554 Q 0.46 -0.46900000000000003 0.46 -0.32 M 0.249 0 L 0.249 0 Q 0.312 0 0.34600000000000003 -0.061 Q 0.36 -0.088 0.366 -0.125 Q 0.377 -0.189 0.377 -0.332 Q 0.377 -0.47100000000000003 0.367 -0.527 Q 0.34900000000000003 -0.622 0.275 -0.641 Q 0.262 -0.644 0.249 -0.644 Q 0.179 -0.644 0.147 -0.5740000000000001 Q 0.136 -0.55 0.13 -0.516 Q 0.122 -0.462 0.122 -0.332 Q 0.122 -0.181 0.133 -0.121 Q 0.151 -0.025 0.221 -0.004 Q 0.23500000000000001 0 0.249 0 Z"/></g><g transform="translate(22.833340166666662,18.00925925925926)"><path fill="rgb(0,0,0)" stroke="none" paint-order="stroke fill markers" d=" M 0.289 -0.25 L 0.289 -0.25 Q 0.289 -0.081 0.226 0.055 Q 0.17400000000000002 0.166 0.094 0.233 Q 0.073 0.25 0.067 0.25 Q 0.057 0.25 0.057 0.24 Q 0.057 0.23500000000000001 0.07 0.223 Q 0.231 0.059000000000000004 0.231 -0.25 Q 0.231 -0.555 0.081 -0.712 L 0.076 -0.717 Q 0.057 -0.735 0.057 -0.74 Q 0.057 -0.75 0.067 -0.75 Q 0.079 -0.75 0.12 -0.709 Q 0.182 -0.647 0.223 -0.562 Q 0.289 -0.426 0.289 -0.25 Z"/></g></g><g transform="scale(27,27)"><g transform="translate(39.77777777777778,17.935185185185187)"><path fill="rgb(0,0,0)" stroke="none" paint-order="stroke fill markers" d=" M 0.331 0.24 L 0.331 0.24 Q 0.331 0.25 0.321 0.25 Q 0.309 0.25 0.268 0.209 Q 0.20600000000000002 0.147 0.165 0.062 Q 0.099 -0.074 0.099 -0.25 Q 0.099 -0.419 0.162 -0.555 Q 0.214 -0.666 0.294 -0.733 Q 0.315 -0.75 0.321 -0.75 Q 0.331 -0.75 0.331 -0.74 Q 0.331 -0.735 0.318 -0.723 Q 0.157 -0.559 0.157 -0.25 Q 0.157 0.058 0.314 0.218 Q 0.331 0.23500000000000001 0.331 0.24 Z"/></g><g transform="translate(40.16666777777778,17.935185185185187)"><path fill="rgb(0,0,0)" stroke="none" paint-order="stroke fill markers" d=" M 0.294 -0.64 L 0.294 -0.079 Q 0.294 -0.049 0.306 -0.041 Q 0.323 -0.031 0.387 -0.031 L 0.419 -0.031 L 0.419 0 Q 0.384 -0.003 0.257 -0.003 Q 0.13 -0.003 0.095 0 L 0.095 -0.031 L 0.127 -0.031 Q 0.20400000000000001 -0.031 0.215 -0.049 L 0.216 -0.05 Q 0.22 -0.058 0.22 -0.079 L 0.22 -0.597 Q 0.168 -0.5710000000000001 0.089 -0.5710000000000001 L 0.089 -0.602 Q 0.209 -0.602 0.271 -0.666 Q 0.29 -0.666 0.293 -0.659 L 0.293 -0.659 L 0.293 -0.658 Q 0.294 -0.655 0.294 -0.64 Z"/></g><g transform="translate(40.666669777777784,17.935185185185187)"><path fill="rgb(0,0,0)" stroke="none" paint-order="stroke fill markers" d=" M 0.203 -0.001 L 0.203 -0.001 Q 0.203 0.096 0.14 0.169 Q 0.123 0.189 0.112 0.193 Q 0.10200000000000001 0.193 0.10200000000000001 0.182 Q 0.10200000000000001 0.177 0.113 0.166 Q 0.17300000000000001 0.106 0.18 0.019 Q 0.181 0.009000000000000001 0.181 -0.001 Q 0.181 -0.016 0.179 -0.016 Q 0.178 -0.016 0.17400000000000002 -0.013000000000000001 Q 0.16 0 0.139 0 Q 0.10200000000000001 0 0.09 -0.034 Q 0.08600000000000001 -0.043000000000000003 0.08600000000000001 -0.053 Q 0.08600000000000001 -0.089 0.117 -0.10200000000000001 Q 0.127 -0.106 0.139 -0.106 Q 0.183 -0.106 0.198 -0.048 Q 0.203 -0.027 0.203 -0.001 Z"/></g><g transform="translate(41.11111594444446,17.935185185185187)"><path fill="rgb(0,0,0)" stroke="none" paint-order="stroke fill markers" d=" M 0.46 -0.32 Q 0.46 -0.17400000000000002 0.423 -0.094 Q 0.364 0.018000000000000002 0.249 0.022 Q 0.158 0.022 0.10300000000000001 -0.05 Q 0.092 -0.063 0.084 -0.079 Q 0.039 -0.162 0.039 -0.32 Q 0.039 -0.467 0.076 -0.547 Q 0.126 -0.659 0.23800000000000002 -0.666 L 0.25 -0.666 Q 0.339 -0.666 0.395 -0.595 L 0.395 -0.594 Q 0.40900000000000003 -0.5760000000000001 0.42 -0.554 Q 0.46 -0.46900000000000003 0.46 -0.32 M 0.249 0 L 0.249 0 Q 0.312 0 0.34600000000000003 -0.061 Q 0.36 -0.088 0.366 -0.125 Q 0.377 -0.189 0.377 -0.332 Q 0.377 -0.47100000000000003 0.367 -0.527 Q 0.34900000000000003 -0.622 0.275 -0.641 Q 0.262 -0.644 0.249 -0.644 Q 0.179 -0.644 0.147 -0.5740000000000001 Q 0.136 -0.55 0.13 -0.516 Q 0.122 -0.462 0.122 -0.332 Q 0.122 -0.181 0.133 -0.121 Q 0.151 -0.025 0.221 -0.004 Q 0.23500000000000001 0 0.249 0 Z"/></g><g transform="translate(41.61111794444446,17.935185185185187)"><path fill="rgb(0,0,0)" stroke="none" paint-order="stroke fill markers" d=" M 0.289 -0.25 L 0.289 -0.25 Q 0.289 -0.081 0.226 0.055 Q 0.17400000000000002 0.166 0.094 0.233 Q 0.073 0.25 0.067 0.25 Q 0.057 0.25 0.057 0.24 Q 0.057 0.23500000000000001 0.07 0.223 Q 0.231 0.059000000000000004 0.231 -0.25 Q 0.231 -0.555 0.081 -0.712 L 0.076 -0.717 Q 0.057 -0.735 0.057 -0.74 Q 0.057 -0.75 0.067 -0.75 Q 0.079 -0.75 0.12 -0.709 Q 0.182 -0.647 0.223 -0.562 Q 0.289 -0.426 0.289 -0.25 Z"/></g></g></g></g></svg>